<?xml version="1.0" encoding="UTF-8"?>
<svg id="Layer_2" data-name="Layer 2" xmlns="http://www.w3.org/2000/svg" xmlns:xlink="http://www.w3.org/1999/xlink" viewBox="0 0 408.07 192.41">
  <defs>
    <style>
      .cls-1 {
        fill: url(#linear-gradient-5);
      }

      .cls-2 {
        fill: url(#linear-gradient-6);
      }

      .cls-3 {
        fill: url(#linear-gradient-4);
      }

      .cls-4 {
        fill: url(#linear-gradient-3);
      }

      .cls-5 {
        fill: url(#linear-gradient-2);
      }

      .cls-6 {
        fill: url(#linear-gradient);
      }
    </style>
    <linearGradient id="linear-gradient" x1="55.79" y1="103.24" x2="56.33" y2="103.24" gradientUnits="userSpaceOnUse">
      <stop offset="0" stop-color="#da3c47"/>
      <stop offset="1" stop-color="#f28336"/>
    </linearGradient>
    <linearGradient id="linear-gradient-2" x1="0" y1="96.2" x2="116.77" y2="96.2" xlink:href="#linear-gradient"/>
    <linearGradient id="linear-gradient-3" x1="195.43" y1="189.44" x2="195.43" y2="13.42" gradientUnits="userSpaceOnUse">
      <stop offset="0" stop-color="#f09b9e"/>
      <stop offset="1" stop-color="#f5ebe4"/>
    </linearGradient>
    <linearGradient id="linear-gradient-4" x1="290.57" x2="290.57" y2="2.74" xlink:href="#linear-gradient-3"/>
    <linearGradient id="linear-gradient-5" x1="368.71" y1="190.06" x2="368.71" y2="25.08" xlink:href="#linear-gradient-3"/>
    <linearGradient id="linear-gradient-6" x1="55.79" xlink:href="#linear-gradient"/>
  </defs>
  <g id="Layer_1-2" data-name="Layer 1">
    <g>
      <path class="cls-6" d="M55.85,103.25c-.17.14.01.1.48-.09-.21-.03-.37,0-.48.09Z"/>
      <path class="cls-5" d="M72.95.64C19.82-7.42-10.1,62.22,36.14,92.53c-51.55,13.96-46.36,89.62,5.44,98.83,53.42,10.32,85.2-58.53,40.51-91.13C132.92,80.92,126.18,9.31,72.95.64ZM69.45,117.88c32.58,27.15-6.09,70.55-37.55,46.02-17.73-14.13-13.01-44.09,9.33-50.39,1.15-.48,14.4-5.78,15.15-5.94M50.93,104.9c.11-.09.28-.12.49-.09-.48.2-.67.24-.49.09ZM95.54,55.74c-1.9,18.04-19.94,23.75-34.73,28.28-12.87-8.2-27.9-17.89-26.12-35.33,5.29-39.83,64.79-32.94,60.85,7.05Z"/>
      <g>
        <path class="cls-4" d="M212.79,189.44l-44.72-56.13v56.13h-33.3V13.42h33.3v100.14l44.24-55.9h43.29l-58.04,66.12,58.51,65.65h-43.29Z"/>
        <path class="cls-3" d="M275.94,36.37c-18.82-19.58,10.43-45.31,29.26-27.83,18.82,19.59-10.44,45.31-29.26,27.83ZM306.98,57.66v131.77h-33.3V57.66h33.3Z"/>
        <path class="cls-1" d="M378.58,85.02c1.34,6.98-3.38,69.5,3.21,73.38,4.13,4.58,20.09,2.55,26.29,2.97v28.07c-84.38,7.04-59.04-46.76-63.03-104.42h-15.7v-27.35h15.7V25.08h33.54v32.59h29.49v27.35h-29.49Z"/>
      </g>
      <path class="cls-2" d="M56.33,103.16c-.47.19-.65.23-.48.09.11-.09.27-.12.48-.09Z"/>
    </g>
  </g>
</svg>