<svg
    width="32"
    height="31"
    viewBox="0 0 32 31"
    fill="000000"
    className="fill-black dark:fill-white"
    xmlns="http://www.w3.org/2000/svg"
>
    <path
        fill-rule="evenodd"
        clip-rule="evenodd"
        d="M0 15.4951C0 6.93382 6.90062 0 15.399 0C18.9865 0 22.2898 1.2329 24.9069 3.30417C22.9171 2.18963 20.6136 1.54852 18.1729 1.54852C10.5176 1.54852 4.31289 7.79192 4.31289 15.4951C4.31289 23.1982 10.5176 29.4416 18.1729 29.4416C20.6136 29.4416 22.9171 28.8104 24.9069 27.686C22.2898 29.7572 18.9865 30.9901 15.399 30.9901C6.90062 31 0 24.0563 0 15.4951ZM31.0626 15.4951C31.0626 22.3401 25.5441 27.8931 18.7415 27.8931C15.8695 27.8931 13.2327 26.9068 11.1351 25.2498C12.7328 26.1473 14.5658 26.6503 16.5262 26.6503C22.6525 26.6503 27.6123 21.6497 27.6123 15.4951C27.6123 9.34044 22.6525 4.3398 16.5262 4.3398C14.5756 4.3398 12.7328 4.85269 11.1351 5.74038C13.2327 4.08336 15.8695 3.09704 18.7415 3.09704C25.5441 3.09704 31.0626 8.65002 31.0626 15.4951ZM12.9583 17.7537C13.0367 19.3713 14.2423 20.0124 15.7126 20.0124C16.6438 20.0124 18.1141 19.7362 18.1141 18.5132C18.1141 15.8797 10.3215 17.5762 10.3215 12.5657C10.3215 9.77442 12.8995 8.45275 15.3598 8.45275C18.1337 8.45275 20.6332 9.69551 20.7313 12.7827H17.6632C17.5064 11.3723 16.487 11.0073 15.2421 11.0073C14.409 11.0073 13.3994 11.3131 13.3994 12.329C13.3994 14.7455 21.192 13.0095 21.192 18.1779C21.192 21.3735 18.3592 22.5472 15.6048 22.5472C12.625 22.5472 9.90984 21.0678 9.89023 17.7537H12.9681H12.9583Z"
    />
</svg> 